<?xml version="1.0" encoding="UTF-8" standalone="no"?>
<!-- Created with Inkscape (http://www.inkscape.org/) -->

<svg
   width="32.523731mm"
   height="28.16995mm"
   viewBox="0 0 32.523731 28.16995"
   version="1.1"
   id="svg245922"
   inkscape:version="1.1.1 (3bf5ae0d25, 2021-09-20)"
   sodipodi:docname="nativa02.svg"
   xmlns:inkscape="http://www.inkscape.org/namespaces/inkscape"
   xmlns:sodipodi="http://sodipodi.sourceforge.net/DTD/sodipodi-0.dtd"
   xmlns="http://www.w3.org/2000/svg"
   xmlns:svg="http://www.w3.org/2000/svg">
  <sodipodi:namedview
     id="namedview245924"
     pagecolor="#ffffff"
     bordercolor="#666666"
     borderopacity="1.0"
     inkscape:pageshadow="2"
     inkscape:pageopacity="0.0"
     inkscape:pagecheckerboard="0"
     inkscape:document-units="mm"
     showgrid="false"
     fit-margin-top="0"
     fit-margin-left="0"
     fit-margin-right="0"
     fit-margin-bottom="0"
     inkscape:zoom="0.72337262"
     inkscape:cx="-157.59513"
     inkscape:cy="212.20046"
     inkscape:window-width="1600"
     inkscape:window-height="1201"
     inkscape:window-x="2391"
     inkscape:window-y="41"
     inkscape:window-maximized="1"
     inkscape:current-layer="layer1" />
  <defs
     id="defs245919" />
  <g
     inkscape:label="Capa 1"
     inkscape:groupmode="layer"
     id="layer1"
     transform="translate(-131.87235,-92.35222)">
    <path
       id="rect65228-8-51-5-9-4-7-1-4-3-6-7"
       style="fill:#0d0e0f;fill-opacity:1;stroke:none;stroke-width:0.0545352;stroke-opacity:1"
       d="m 149.58286,92.35222 v 5.372532 h 0.95832 l 6.54645,13.480288 V 97.724752 h 3.31768 v 18.398468 h -4.26729 l -6.52109,-13.27213 v 13.27213 h -0.0341 v 4.39894 h 14.81325 V 92.35222 Z" />
    <path
       style="fill:#03ffb6;fill-opacity:1;stroke:none;stroke-width:0.187217px;stroke-linecap:butt;stroke-linejoin:miter;stroke-opacity:1"
       d="m 153.28433,120.52217 c 0,0 -0.89409,-3.63126 -1.734,-5.28371 -1.04283,-2.05153 -3.18078,-4.25746 -4.03079,-5.60532 -0.89046,-1.41193 -2.20554,-3.08655 -1.78042,-4.68074 0.53354,-2.00082 2.69545,-2.4108 2.69545,-2.4108 0,0 2.87083,-0.80528 4.34644,-0.96078 1.00865,-0.10636 1.75874,0.0475 3.04254,0.0229 1.28379,-0.0246 4.64381,-0.25164 4.64381,-0.25164 0,0 -6.15617,-1.353389 -6.77126,-1.464096 -0.53789,-0.09674 -0.48198,-0.201249 -0.73205,-0.274476 -0.20957,-0.06139 -0.64056,-0.137294 -0.64056,-0.137294 0,0 -1.11276,-1.433435 -1.53822,-1.683335 -0.40311,-0.236773 -2.48062,-0.634747 -3.7461,-0.810135 -1.0898,-0.150979 -3.29416,-0.205886 -3.29416,-0.205886 l -0.93794,1.235313 c -0.30106,0.396522 -0.32028,1.281059 -0.32028,1.281059 0,0 -1.85319,2.92479 -1.90843,4.57673 -0.10384,3.10711 3.00651,8.82861 3.00651,8.82861 0,0 -1.5723,0.69854 -3.45593,1.06289 -1.52258,0.29447 -3.75375,0.21024 -4.69292,0.92805 -1.99584,1.52537 -3.56367,5.83266 -3.56367,5.83266 z"
       id="path869-1-7-5-2-0-1-5-3-8-7-8-7-3"
       sodipodi:nodetypes="casscazcsacsacscacsscc" />
  </g>
</svg>
